<svg width="114" height="21" viewBox="0 0 114 21" fill="none" xmlns="http://www.w3.org/2000/svg">
<path d="M18.772 6.896L19.684 20H15.028L14.74 10.616L12.916 20H7.228L5.38 10.736L5.116 20H0.46L1.372 6.896H8.476L10.036 15.464L11.428 6.896H18.772ZM24.8166 5.48C23.8086 5.48 23.0566 5.232 22.5606 4.736C22.0806 4.24 21.8406 3.592 21.8406 2.792C21.8406 2.008 22.0806 1.36 22.5606 0.847999C23.0566 0.335999 23.8086 0.079999 24.8166 0.079999C25.7766 0.079999 26.5126 0.343999 27.0246 0.871999C27.5366 1.384 27.7926 2.024 27.7926 2.792C27.7926 3.592 27.5446 4.24 27.0486 4.736C26.5526 5.232 25.8086 5.48 24.8166 5.48ZM22.0326 20C22.1446 17.424 22.2006 15.296 22.2006 13.616C22.2006 11.616 22.1366 9.376 22.0086 6.896H27.7686C27.6406 9.28 27.5766 11.52 27.5766 13.616C27.5766 15.376 27.6326 17.504 27.7446 20H22.0326ZM45.0644 6.896C44.9844 9.328 44.9444 11.512 44.9444 13.448C44.9444 15.384 44.9844 17.568 45.0644 20H39.8564V15.632H35.1524V20H29.9444C30.0244 18.176 30.0644 15.992 30.0644 13.448C30.0644 10.904 30.0244 8.72 29.9444 6.896H35.1524V11.264H39.8564V6.896H45.0644ZM61.6954 6.896C61.6154 9.328 61.5754 11.512 61.5754 13.448C61.5754 15.384 61.6154 17.568 61.6954 20H56.9674V15.824H55.0234C53.9194 17.568 53.0874 18.96 52.5274 20H46.8874C48.1674 18.256 49.2474 16.752 50.1274 15.488C48.8954 15.168 48.0234 14.648 47.5114 13.928C46.9994 13.208 46.7434 12.32 46.7434 11.264C46.7434 9.936 47.2234 8.88 48.1834 8.096C49.1434 7.312 50.8394 6.92 53.2714 6.92H56.9674V6.896H61.6954ZM56.9674 12.44V10.376H54.8074C53.6394 10.376 52.8474 10.448 52.4314 10.592C52.0314 10.736 51.8314 11 51.8314 11.384C51.8314 11.784 52.0394 12.064 52.4554 12.224C52.8874 12.368 53.6714 12.44 54.8074 12.44H56.9674ZM78.6481 6.896C78.5681 9.216 78.5281 11.312 78.5281 13.184C78.5281 15.024 78.5681 17.12 78.6481 19.472H73.7281L73.9921 11.168L70.3201 19.472H63.6241C63.7201 17.36 63.7681 15.264 63.7681 13.184C63.7681 11.072 63.7201 8.976 63.6241 6.896H68.3521L68.1121 15.416L71.7841 6.896H78.6481ZM70.8961 6.32C70.1441 6.32 69.4481 6.152 68.8081 5.816C68.1841 5.48 67.6881 5 67.3201 4.376C66.9521 3.752 66.7681 3.024 66.7681 2.192H69.1441C69.1441 2.816 69.3041 3.28 69.6241 3.584C69.9601 3.872 70.3841 4.016 70.8961 4.016C71.4081 4.016 71.8241 3.872 72.1441 3.584C72.4801 3.28 72.6481 2.816 72.6481 2.192H75.0241C75.0241 3.024 74.8401 3.752 74.4721 4.376C74.1041 5 73.6001 5.48 72.9601 5.816C72.3361 6.152 71.6481 6.32 70.8961 6.32ZM92.8334 13.736C93.5534 14.312 94.1054 14.96 94.4894 15.68C94.8734 16.4 95.2334 17.264 95.5694 18.272C95.9054 19.152 96.1454 19.728 96.2894 20H90.5054C90.4574 19.888 90.3614 19.536 90.2174 18.944C90.0894 18.352 89.9614 17.88 89.8334 17.528C89.7054 17.16 89.5134 16.84 89.2574 16.568C88.8574 16.136 88.4094 15.856 87.9134 15.728C87.4174 15.6 86.6814 15.536 85.7054 15.536V20H80.5694C80.6494 18.176 80.6894 15.992 80.6894 13.448C80.6894 10.904 80.6494 8.72 80.5694 6.896H85.7054V11.6H85.8014C87.7054 9.696 89.0894 8.128 89.9534 6.896H96.2894L90.6734 12.488C91.5054 12.84 92.2254 13.256 92.8334 13.736ZM112.641 16.016C112.641 16.56 112.705 16.944 112.833 17.168C112.961 17.392 113.217 17.552 113.601 17.648L113.505 19.904C112.993 19.984 112.545 20.04 112.161 20.072C111.793 20.104 111.297 20.12 110.673 20.12C109.297 20.12 108.385 19.816 107.937 19.208C107.489 18.584 107.265 17.792 107.265 16.832V16.232C106.801 17.544 106.121 18.52 105.225 19.16C104.345 19.8 103.217 20.12 101.841 20.12C100.241 20.12 99.0329 19.8 98.2169 19.16C97.4169 18.52 97.0169 17.568 97.0169 16.304C97.0169 15.264 97.3609 14.448 98.0489 13.856C98.7369 13.264 99.8009 12.856 101.241 12.632C100.025 11.768 98.8089 11.016 97.5929 10.376C98.5529 9.16 99.6489 8.24 100.881 7.616C102.113 6.976 103.609 6.656 105.369 6.656C107.833 6.656 109.657 7.192 110.841 8.264C112.041 9.32 112.641 10.952 112.641 13.16V16.016ZM105.873 10.88C105.057 10.88 104.337 11.016 103.713 11.288C103.089 11.56 102.529 11.968 102.033 12.512C102.993 12.4 104.193 12.344 105.633 12.344C106.225 12.344 106.641 12.272 106.881 12.128C107.121 11.984 107.241 11.8 107.241 11.576C107.241 11.384 107.121 11.224 106.881 11.096C106.641 10.952 106.305 10.88 105.873 10.88ZM103.353 16.208C104.249 16.208 105.057 16.04 105.777 15.704C106.497 15.352 106.993 14.896 107.265 14.336V13.712C106.881 13.904 106.457 14.056 105.993 14.168C105.529 14.264 104.969 14.36 104.313 14.456L103.449 14.6C102.553 14.776 102.105 15.08 102.105 15.512C102.105 15.976 102.521 16.208 103.353 16.208Z" fill="#EEEEEE"/>
</svg>
