<svg width="354" height="251" viewBox="0 0 354 251" fill="none" xmlns="http://www.w3.org/2000/svg">
<rect width="354" height="250" transform="translate(0 0.578613)" fill="#232931"/>
<rect x="134.003" y="133.992" width="38.1769" height="38.1769" rx="5" fill="#EA8B56" fill-opacity="0.2"/>
<path d="M199.399 88.5118C200.553 86.5056 203.447 86.5056 204.601 88.5118L222.415 119.493C223.565 121.493 222.121 123.989 219.814 123.989H184.186C181.879 123.989 180.435 121.493 181.585 119.493L199.399 88.5118Z" fill="#EA8B56" fill-opacity="0.2"/>
<path d="M202 171.989C175.106 171.989 175.562 133.988 202 133.989C228.438 133.989 228.894 171.989 202 171.989Z" fill="#EA8B56" fill-opacity="0.2"/>
<path d="M151.575 83.3108C152.028 81.9369 153.972 81.9369 154.425 83.3108L158.326 95.1468C158.529 95.7618 159.103 96.1772 159.751 96.1772H172.329C173.788 96.1772 174.388 98.0476 173.203 98.8967L163.064 106.158C162.53 106.54 162.307 107.224 162.512 107.847L166.394 119.623C166.848 121.002 165.276 122.157 164.096 121.312L153.873 113.991C153.351 113.617 152.649 113.617 152.127 113.991L141.904 121.312C140.724 122.157 139.152 121.002 139.606 119.623L143.488 107.847C143.693 107.224 143.47 106.54 142.936 106.158L132.797 98.8967C131.612 98.0476 132.212 96.1772 133.671 96.1772H146.249C146.897 96.1772 147.471 95.7618 147.674 95.1468L151.575 83.3108Z" fill="#EA8B56" fill-opacity="0.2"/>
</svg>
